<svg xmlns="http://www.w3.org/2000/svg" xmlns:xlink="http://www.w3.org/1999/xlink" width="500" zoomAndPan="magnify" viewBox="0 0 375 374.999991" height="500" preserveAspectRatio="xMidYMid meet" version="1.0"><defs><g/><clipPath id="00f205307e"><path d="M 37.5 131.539062 L 149.417969 131.539062 L 149.417969 243.460938 L 37.5 243.460938 Z M 37.5 131.539062 " clip-rule="nonzero"/></clipPath><clipPath id="a4410d12ef"><path d="M 93.460938 131.539062 C 62.554688 131.539062 37.5 156.59375 37.5 187.5 C 37.5 218.40625 62.554688 243.460938 93.460938 243.460938 C 124.363281 243.460938 149.417969 218.40625 149.417969 187.5 C 149.417969 156.59375 124.363281 131.539062 93.460938 131.539062 Z M 93.460938 131.539062 " clip-rule="nonzero"/></clipPath></defs><g clip-path="url(#00f205307e)"><g clip-path="url(#a4410d12ef)"><path fill="#f76b10" d="M 37.5 131.539062 L 149.417969 131.539062 L 149.417969 243.460938 L 37.5 243.460938 Z M 37.5 131.539062 " fill-opacity="1" fill-rule="nonzero"/></g></g><g fill="#ffffff" fill-opacity="1"><g transform="translate(43.239303, 202.499987)"><g><path d="M 9.53125 0 L 2.390625 0 L 2.390625 -30.40625 L 13.875 -30.40625 L 18.890625 -8.53125 L 23.875 -30.40625 L 35.390625 -30.40625 L 35.390625 0 L 28.265625 0 L 28.265625 -24.71875 L 22.359375 0 L 15.421875 0 L 9.53125 -24.546875 Z M 9.53125 0 "/></g></g></g><g fill="#ffffff" fill-opacity="1"><g transform="translate(81.050945, 202.499987)"><g><path d="M 13.078125 0.484375 C 10.679688 0.484375 8.597656 -0.0195312 6.828125 -1.03125 C 5.066406 -2.039062 3.703125 -3.414062 2.734375 -5.15625 C 1.765625 -6.894531 1.28125 -8.882812 1.28125 -11.125 C 1.28125 -12.550781 1.5 -13.96875 1.9375 -15.375 C 2.375 -16.789062 3.0625 -18.082031 4 -19.25 C 4.945312 -20.414062 6.148438 -21.34375 7.609375 -22.03125 C 9.078125 -22.726562 10.832031 -23.078125 12.875 -23.078125 C 14.363281 -23.078125 15.804688 -22.859375 17.203125 -22.421875 C 18.597656 -21.984375 19.84375 -21.285156 20.9375 -20.328125 C 22.039062 -19.367188 22.914062 -18.125 23.5625 -16.59375 C 24.21875 -15.070312 24.546875 -13.222656 24.546875 -11.046875 L 24.546875 -9.890625 L 8.296875 -9.890625 C 8.472656 -8.660156 8.859375 -7.6875 9.453125 -6.96875 C 9.929688 -6.382812 10.507812 -5.953125 11.1875 -5.671875 C 11.863281 -5.398438 12.613281 -5.265625 13.4375 -5.265625 C 14.445312 -5.265625 15.300781 -5.515625 16 -6.015625 C 16.707031 -6.523438 17.191406 -7.125 17.453125 -7.8125 L 24.1875 -7.8125 C 23.769531 -6.320312 23.09375 -4.945312 22.15625 -3.6875 C 21.226562 -2.425781 20.015625 -1.414062 18.515625 -0.65625 C 17.015625 0.101562 15.203125 0.484375 13.078125 0.484375 Z M 8.484375 -14.625 L 17.78125 -14.625 C 17.726562 -14.894531 17.628906 -15.210938 17.484375 -15.578125 C 17.335938 -15.953125 17.078125 -16.3125 16.703125 -16.65625 C 16.222656 -17.132812 15.675781 -17.472656 15.0625 -17.671875 C 14.457031 -17.867188 13.804688 -17.96875 13.109375 -17.96875 C 12.453125 -17.96875 11.8125 -17.867188 11.1875 -17.671875 C 10.5625 -17.472656 10.007812 -17.132812 9.53125 -16.65625 C 9.15625 -16.289062 8.898438 -15.925781 8.765625 -15.5625 C 8.628906 -15.207031 8.535156 -14.894531 8.484375 -14.625 Z M 8.484375 -14.625 "/></g></g></g><g fill="#ffffff" fill-opacity="1"><g transform="translate(106.86965, 202.499987)"><g><path d="M 13.078125 0.484375 C 10.679688 0.484375 8.597656 -0.0195312 6.828125 -1.03125 C 5.066406 -2.039062 3.703125 -3.414062 2.734375 -5.15625 C 1.765625 -6.894531 1.28125 -8.882812 1.28125 -11.125 C 1.28125 -12.550781 1.5 -13.96875 1.9375 -15.375 C 2.375 -16.789062 3.0625 -18.082031 4 -19.25 C 4.945312 -20.414062 6.148438 -21.34375 7.609375 -22.03125 C 9.078125 -22.726562 10.832031 -23.078125 12.875 -23.078125 C 14.363281 -23.078125 15.804688 -22.859375 17.203125 -22.421875 C 18.597656 -21.984375 19.84375 -21.285156 20.9375 -20.328125 C 22.039062 -19.367188 22.914062 -18.125 23.5625 -16.59375 C 24.21875 -15.070312 24.546875 -13.222656 24.546875 -11.046875 L 24.546875 -9.890625 L 8.296875 -9.890625 C 8.472656 -8.660156 8.859375 -7.6875 9.453125 -6.96875 C 9.929688 -6.382812 10.507812 -5.953125 11.1875 -5.671875 C 11.863281 -5.398438 12.613281 -5.265625 13.4375 -5.265625 C 14.445312 -5.265625 15.300781 -5.515625 16 -6.015625 C 16.707031 -6.523438 17.191406 -7.125 17.453125 -7.8125 L 24.1875 -7.8125 C 23.769531 -6.320312 23.09375 -4.945312 22.15625 -3.6875 C 21.226562 -2.425781 20.015625 -1.414062 18.515625 -0.65625 C 17.015625 0.101562 15.203125 0.484375 13.078125 0.484375 Z M 8.484375 -14.625 L 17.78125 -14.625 C 17.726562 -14.894531 17.628906 -15.210938 17.484375 -15.578125 C 17.335938 -15.953125 17.078125 -16.3125 16.703125 -16.65625 C 16.222656 -17.132812 15.675781 -17.472656 15.0625 -17.671875 C 14.457031 -17.867188 13.804688 -17.96875 13.109375 -17.96875 C 12.453125 -17.96875 11.8125 -17.867188 11.1875 -17.671875 C 10.5625 -17.472656 10.007812 -17.132812 9.53125 -16.65625 C 9.15625 -16.289062 8.898438 -15.925781 8.765625 -15.5625 C 8.628906 -15.207031 8.535156 -14.894531 8.484375 -14.625 Z M 8.484375 -14.625 "/></g></g></g><g fill="#ffffff" fill-opacity="1"><g transform="translate(132.688355, 202.499987)"><g><path d="M 14.515625 0 L 9.171875 0 C 7.523438 0 6.242188 -0.390625 5.328125 -1.171875 C 4.410156 -1.960938 3.953125 -3.070312 3.953125 -4.5 L 3.953125 -17.375 L 0.84375 -17.375 L 0.84375 -22.59375 L 3.953125 -22.59375 L 3.953125 -30.40625 L 10.640625 -30.40625 L 10.640625 -22.59375 L 14.546875 -22.59375 L 14.546875 -17.375 L 10.640625 -17.375 L 10.640625 -6.78125 C 10.640625 -6.457031 10.71875 -6.148438 10.875 -5.859375 C 11.039062 -5.566406 11.414062 -5.421875 12 -5.421875 L 14.515625 -5.421875 Z M 14.515625 0 "/></g></g></g><g fill="#ffffff" fill-opacity="1"><g transform="translate(148.546134, 202.499987)"><g><path d="M 9.53125 0 L 2.390625 0 L 2.390625 -30.40625 L 13.875 -30.40625 L 18.890625 -8.53125 L 23.875 -30.40625 L 35.390625 -30.40625 L 35.390625 0 L 28.265625 0 L 28.265625 -24.71875 L 22.359375 0 L 15.421875 0 L 9.53125 -24.546875 Z M 9.53125 0 "/></g></g></g><g fill="#ffffff" fill-opacity="1"><g transform="translate(186.357777, 202.499987)"><g><path d="M 8.734375 0.484375 C 7.378906 0.484375 6.140625 0.234375 5.015625 -0.265625 C 3.898438 -0.773438 3.003906 -1.535156 2.328125 -2.546875 C 1.648438 -3.554688 1.3125 -4.820312 1.3125 -6.34375 C 1.3125 -7.695312 1.578125 -8.8125 2.109375 -9.6875 C 2.640625 -10.5625 3.316406 -11.265625 4.140625 -11.796875 C 4.941406 -12.328125 5.820312 -12.71875 6.78125 -12.96875 C 7.738281 -13.226562 8.640625 -13.4375 9.484375 -13.59375 L 15.34375 -14.625 C 15.257812 -15.769531 14.953125 -16.648438 14.421875 -17.265625 C 13.921875 -17.796875 13.164062 -18.0625 12.15625 -18.0625 C 11.382812 -18.0625 10.671875 -17.800781 10.015625 -17.28125 C 9.367188 -16.757812 8.96875 -16.019531 8.8125 -15.0625 L 2.15625 -15.0625 C 2.445312 -16.945312 3.097656 -18.476562 4.109375 -19.65625 C 5.117188 -20.84375 6.335938 -21.707031 7.765625 -22.25 C 9.203125 -22.800781 10.679688 -23.078125 12.203125 -23.078125 C 13.523438 -23.078125 14.796875 -22.894531 16.015625 -22.53125 C 17.242188 -22.175781 18.3125 -21.613281 19.21875 -20.84375 C 20.144531 -20.050781 20.800781 -19.132812 21.1875 -18.09375 C 21.570312 -17.0625 21.800781 -15.925781 21.875 -14.6875 C 21.957031 -13.445312 22 -12.125 22 -10.71875 L 22 0 L 15.3125 0 L 15.3125 -2.75 C 14.9375 -1.875 14.40625 -1.195312 13.71875 -0.71875 C 13.050781 -0.269531 12.285156 0.0390625 11.421875 0.21875 C 10.554688 0.394531 9.660156 0.484375 8.734375 0.484375 Z M 10.6875 -4.578125 C 11.476562 -4.578125 12.285156 -4.765625 13.109375 -5.140625 C 14.046875 -5.566406 14.664062 -6.15625 14.96875 -6.90625 C 15.269531 -7.664062 15.4375 -8.660156 15.46875 -9.890625 L 11.359375 -9.09375 C 10.617188 -8.957031 10.046875 -8.804688 9.640625 -8.640625 C 9.242188 -8.484375 8.898438 -8.273438 8.609375 -8.015625 C 8.421875 -7.828125 8.273438 -7.617188 8.171875 -7.390625 C 8.066406 -7.171875 8.015625 -6.898438 8.015625 -6.578125 C 8.015625 -5.859375 8.28125 -5.34375 8.8125 -5.03125 C 9.34375 -4.726562 9.96875 -4.578125 10.6875 -4.578125 Z M 10.6875 -4.578125 "/></g></g></g><g fill="#ffffff" fill-opacity="1"><g transform="translate(210.303828, 202.499987)"><g><path d="M 14.515625 0 L 9.171875 0 C 7.523438 0 6.242188 -0.390625 5.328125 -1.171875 C 4.410156 -1.960938 3.953125 -3.070312 3.953125 -4.5 L 3.953125 -17.375 L 0.84375 -17.375 L 0.84375 -22.59375 L 3.953125 -22.59375 L 3.953125 -30.40625 L 10.640625 -30.40625 L 10.640625 -22.59375 L 14.546875 -22.59375 L 14.546875 -17.375 L 10.640625 -17.375 L 10.640625 -6.78125 C 10.640625 -6.457031 10.71875 -6.148438 10.875 -5.859375 C 11.039062 -5.566406 11.414062 -5.421875 12 -5.421875 L 14.515625 -5.421875 Z M 14.515625 0 "/></g></g></g><g fill="#ffffff" fill-opacity="1"><g transform="translate(226.161607, 202.499987)"><g><path d="M 8.890625 0 L 2.1875 0 L 2.1875 -22.59375 L 8.890625 -22.59375 L 8.890625 -20.171875 C 9.660156 -21.304688 10.515625 -22.070312 11.453125 -22.46875 C 12.398438 -22.875 13.472656 -23.078125 14.671875 -23.078125 L 15.671875 -23.078125 L 15.671875 -16.703125 L 14.390625 -16.703125 C 13.460938 -16.703125 12.691406 -16.59375 12.078125 -16.375 C 11.460938 -16.164062 10.957031 -15.875 10.5625 -15.5 C 9.976562 -14.945312 9.550781 -14.195312 9.28125 -13.25 C 9.019531 -12.3125 8.890625 -11.070312 8.890625 -9.53125 Z M 8.890625 0 "/></g></g></g><g fill="#ffffff" fill-opacity="1"><g transform="translate(242.497498, 202.499987)"><g><path d="M 5.546875 -24.15625 C 4.503906 -24.15625 3.609375 -24.457031 2.859375 -25.0625 C 2.117188 -25.675781 1.75 -26.515625 1.75 -27.578125 C 1.75 -28.640625 2.117188 -29.484375 2.859375 -30.109375 C 3.609375 -30.734375 4.503906 -31.046875 5.546875 -31.046875 C 6.578125 -31.046875 7.460938 -30.734375 8.203125 -30.109375 C 8.953125 -29.484375 9.328125 -28.640625 9.328125 -27.578125 C 9.328125 -26.515625 8.953125 -25.675781 8.203125 -25.0625 C 7.460938 -24.457031 6.578125 -24.15625 5.546875 -24.15625 Z M 8.890625 0 L 2.1875 0 L 2.1875 -22.59375 L 8.890625 -22.59375 Z M 8.890625 0 "/></g></g></g><g fill="#ffffff" fill-opacity="1"><g transform="translate(253.57405, 202.499987)"><g><path d="M 7.859375 0 L 0.3125 0 L 7.765625 -11.4375 L 0.28125 -22.59375 L 7.859375 -22.59375 L 11.921875 -15.859375 L 16.109375 -22.59375 L 23.828125 -22.59375 L 16.140625 -11.4375 L 23.796875 0 L 16.140625 0 L 11.953125 -6.890625 Z M 7.859375 0 "/></g></g></g><g fill="#ffffff" fill-opacity="1"><g transform="translate(288.518628, 217.819292)"><g><path d="M 0.125 -4.578125 C 0.125 -3.804688 -0.0351562 -3.125 -0.359375 -2.53125 C -0.679688 -1.945312 -1.160156 -1.488281 -1.796875 -1.15625 C -2.441406 -0.820312 -3.238281 -0.65625 -4.1875 -0.65625 C -5.125 -0.65625 -5.914062 -0.820312 -6.5625 -1.15625 C -7.207031 -1.488281 -7.6875 -1.945312 -8 -2.53125 C -8.320312 -3.125 -8.484375 -3.804688 -8.484375 -4.578125 C -8.484375 -5.378906 -8.328125 -6.0625 -8.015625 -6.625 C -7.703125 -7.1875 -7.222656 -7.585938 -6.578125 -7.828125 L -5.84375 -6.625 L -5.84375 -6.484375 C -6.28125 -6.296875 -6.59375 -6.046875 -6.78125 -5.734375 C -6.96875 -5.429688 -7.0625 -5.046875 -7.0625 -4.578125 C -7.0625 -3.878906 -6.832031 -3.332031 -6.375 -2.9375 C -5.914062 -2.550781 -5.1875 -2.359375 -4.1875 -2.359375 C -3.1875 -2.359375 -2.457031 -2.550781 -2 -2.9375 C -1.539062 -3.332031 -1.3125 -3.878906 -1.3125 -4.578125 C -1.3125 -5.660156 -1.835938 -6.320312 -2.890625 -6.5625 L -2.890625 -6.71875 L -2.265625 -7.9375 C -1.460938 -7.707031 -0.863281 -7.3125 -0.46875 -6.75 C -0.0703125 -6.195312 0.125 -5.472656 0.125 -4.578125 Z M 0.125 -4.578125 "/></g></g></g><g fill="#ffffff" fill-opacity="1"><g transform="translate(288.518628, 209.622085)"><g><path d="M 0.125 -3.671875 C 0.125 -3.046875 0 -2.5 -0.25 -2.03125 C -0.507812 -1.570312 -0.882812 -1.210938 -1.375 -0.953125 C -1.863281 -0.691406 -2.457031 -0.5625 -3.15625 -0.5625 C -3.84375 -0.5625 -4.429688 -0.691406 -4.921875 -0.953125 C -5.421875 -1.210938 -5.796875 -1.570312 -6.046875 -2.03125 C -6.304688 -2.5 -6.4375 -3.046875 -6.4375 -3.671875 C -6.4375 -4.285156 -6.304688 -4.828125 -6.046875 -5.296875 C -5.796875 -5.765625 -5.421875 -6.128906 -4.921875 -6.390625 C -4.429688 -6.648438 -3.84375 -6.78125 -3.15625 -6.78125 C -2.457031 -6.78125 -1.863281 -6.648438 -1.375 -6.390625 C -0.882812 -6.128906 -0.507812 -5.765625 -0.25 -5.296875 C 0 -4.828125 0.125 -4.285156 0.125 -3.671875 Z M -1.21875 -3.671875 C -1.21875 -4.648438 -1.863281 -5.140625 -3.15625 -5.140625 C -3.820312 -5.140625 -4.3125 -5.015625 -4.625 -4.765625 C -4.9375 -4.515625 -5.09375 -4.148438 -5.09375 -3.671875 C -5.09375 -2.691406 -4.445312 -2.203125 -3.15625 -2.203125 C -1.863281 -2.203125 -1.21875 -2.691406 -1.21875 -3.671875 Z M -1.21875 -3.671875 "/></g></g></g><g fill="#ffffff" fill-opacity="1"><g transform="translate(288.518628, 202.293758)"><g><path d="M 0 -0.90625 L -6.3125 -0.90625 L -6.3125 -2.4375 L -5.390625 -2.4375 L -5.359375 -2.546875 C -6.078125 -2.941406 -6.4375 -3.582031 -6.4375 -4.46875 C -6.4375 -5.195312 -6.234375 -5.726562 -5.828125 -6.0625 C -5.429688 -6.40625 -4.859375 -6.578125 -4.109375 -6.578125 L 0 -6.578125 L 0 -5 L -3.90625 -5 C -4.320312 -5 -4.625 -4.910156 -4.8125 -4.734375 C -5 -4.566406 -5.09375 -4.300781 -5.09375 -3.9375 C -5.09375 -3.476562 -4.945312 -3.125 -4.65625 -2.875 C -4.363281 -2.625 -3.898438 -2.5 -3.265625 -2.5 L 0 -2.5 Z M 0 -0.90625 "/></g></g></g><g fill="#ffffff" fill-opacity="1"><g transform="translate(288.518628, 194.908268)"><g><path d="M 0 -0.90625 L -6.3125 -0.90625 L -6.3125 -2.4375 L -5.390625 -2.4375 L -5.359375 -2.546875 C -6.078125 -2.941406 -6.4375 -3.582031 -6.4375 -4.46875 C -6.4375 -5.195312 -6.234375 -5.726562 -5.828125 -6.0625 C -5.429688 -6.40625 -4.859375 -6.578125 -4.109375 -6.578125 L 0 -6.578125 L 0 -5 L -3.90625 -5 C -4.320312 -5 -4.625 -4.910156 -4.8125 -4.734375 C -5 -4.566406 -5.09375 -4.300781 -5.09375 -3.9375 C -5.09375 -3.476562 -4.945312 -3.125 -4.65625 -2.875 C -4.363281 -2.625 -3.898438 -2.5 -3.265625 -2.5 L 0 -2.5 Z M 0 -0.90625 "/></g></g></g><g fill="#ffffff" fill-opacity="1"><g transform="translate(288.518628, 187.522778)"><g><path d="M -2.796875 -6.234375 L -2.796875 -2.1875 C -2.242188 -2.226562 -1.84375 -2.378906 -1.59375 -2.640625 C -1.34375 -2.910156 -1.21875 -3.28125 -1.21875 -3.75 C -1.21875 -4.101562 -1.285156 -4.394531 -1.421875 -4.625 C -1.554688 -4.851562 -1.765625 -5.035156 -2.046875 -5.171875 L -2.046875 -5.28125 L -1.375 -6.34375 C -0.925781 -6.132812 -0.5625 -5.820312 -0.28125 -5.40625 C -0.0078125 -4.988281 0.125 -4.4375 0.125 -3.75 C 0.125 -3.09375 0 -2.523438 -0.25 -2.046875 C -0.5 -1.578125 -0.867188 -1.210938 -1.359375 -0.953125 C -1.847656 -0.691406 -2.445312 -0.5625 -3.15625 -0.5625 C -3.875 -0.5625 -4.476562 -0.695312 -4.96875 -0.96875 C -5.457031 -1.238281 -5.820312 -1.601562 -6.0625 -2.0625 C -6.3125 -2.53125 -6.4375 -3.050781 -6.4375 -3.625 C -6.4375 -4.519531 -6.195312 -5.203125 -5.71875 -5.671875 C -5.25 -6.148438 -4.554688 -6.390625 -3.640625 -6.390625 C -3.304688 -6.390625 -3.046875 -6.378906 -2.859375 -6.359375 Z M -3.828125 -4.875 C -4.304688 -4.863281 -4.65625 -4.753906 -4.875 -4.546875 C -5.09375 -4.335938 -5.203125 -4.03125 -5.203125 -3.625 C -5.203125 -2.820312 -4.742188 -2.351562 -3.828125 -2.21875 Z M -3.828125 -4.875 "/></g></g></g><g fill="#ffffff" fill-opacity="1"><g transform="translate(288.518628, 180.6689)"><g><path d="M 0.125 -3.671875 C 0.125 -3.066406 0 -2.53125 -0.25 -2.0625 C -0.507812 -1.59375 -0.882812 -1.222656 -1.375 -0.953125 C -1.863281 -0.691406 -2.457031 -0.5625 -3.15625 -0.5625 C -3.84375 -0.5625 -4.429688 -0.691406 -4.921875 -0.953125 C -5.421875 -1.222656 -5.796875 -1.585938 -6.046875 -2.046875 C -6.304688 -2.515625 -6.4375 -3.050781 -6.4375 -3.65625 C -6.4375 -4.976562 -5.953125 -5.828125 -4.984375 -6.203125 L -4.203125 -5.125 L -4.203125 -5 C -4.503906 -4.875 -4.726562 -4.707031 -4.875 -4.5 C -5.019531 -4.289062 -5.09375 -4.007812 -5.09375 -3.65625 C -5.09375 -3.195312 -4.929688 -2.835938 -4.609375 -2.578125 C -4.296875 -2.328125 -3.8125 -2.203125 -3.15625 -2.203125 C -2.507812 -2.203125 -2.023438 -2.328125 -1.703125 -2.578125 C -1.378906 -2.835938 -1.21875 -3.203125 -1.21875 -3.671875 C -1.21875 -4.015625 -1.3125 -4.304688 -1.5 -4.546875 C -1.6875 -4.785156 -1.953125 -4.957031 -2.296875 -5.0625 L -2.3125 -5.1875 L -1.6875 -6.3125 C -1.15625 -6.15625 -0.71875 -5.859375 -0.375 -5.421875 C -0.0390625 -4.984375 0.125 -4.398438 0.125 -3.671875 Z M 0.125 -3.671875 "/></g></g></g><g fill="#ffffff" fill-opacity="1"><g transform="translate(288.518628, 174.169435)"><g><path d="M -1.5 -4.359375 L -0.328125 -4.765625 C -0.191406 -4.597656 -0.0820312 -4.382812 0 -4.125 C 0.0820312 -3.863281 0.125 -3.566406 0.125 -3.234375 C 0.125 -2.554688 -0.0625 -2.039062 -0.4375 -1.6875 C -0.8125 -1.332031 -1.351562 -1.15625 -2.0625 -1.15625 L -5.0625 -1.15625 L -5.0625 -0.1875 L -6.3125 -0.1875 L -6.3125 -1.15625 L -7.546875 -1.15625 L -7.8125 -2.734375 L -6.3125 -2.734375 L -6.3125 -4.53125 L -5.0625 -4.53125 L -5.0625 -2.734375 L -2.171875 -2.734375 C -1.859375 -2.734375 -1.628906 -2.796875 -1.484375 -2.921875 C -1.347656 -3.054688 -1.28125 -3.25 -1.28125 -3.5 C -1.28125 -3.78125 -1.351562 -4.023438 -1.5 -4.234375 Z M -1.5 -4.359375 "/></g></g></g></svg>